<?xml version="1.0" encoding="UTF-8" standalone="no"?>
<!DOCTYPE svg PUBLIC "-//W3C//DTD SVG 1.1//EN" "http://www.w3.org/Graphics/SVG/1.1/DTD/svg11.dtd">
<svg width="100%" height="100%" viewBox="0 0 1705 765" version="1.1" xmlns="http://www.w3.org/2000/svg" xmlns:xlink="http://www.w3.org/1999/xlink" xml:space="preserve" xmlns:serif="http://www.serif.com/" style="fill-rule:evenodd;clip-rule:evenodd;stroke-linejoin:round;stroke-miterlimit:2;">
    <g id="Artboard1" transform="matrix(1,0,0,1,-854.947,-791.689)">
        <rect x="854.947" y="791.689" width="1704.49" height="764.776" style="fill:none;"/>
        <g transform="matrix(4.16667,0,0,4.16667,0.94723,0.688654)">
            <g>
                <path d="M276.379,279.37C273.893,283.528 270.739,286.885 265.426,289.19C260.183,291.485 252.704,292.772 241.435,292.772C230.235,292.772 209.635,292.238 214.784,275.876C219.939,259.521 240.873,258.992 252.075,258.992C263.21,258.992 280.07,259.963 278.55,272.475L257.719,272.475C257.903,270.222 256.709,266.946 249.567,266.946C242.033,266.946 236.46,269.47 234.441,275.876C232.422,282.288 236.278,284.81 243.024,284.81C248.857,284.81 252.843,283.176 255.547,279.37L276.379,279.37Z" style="fill-rule:nonzero;"/>
                <path d="M281.017,275.876C275.865,292.238 296.467,292.772 307.67,292.772C318.871,292.772 339.801,292.238 344.956,275.876C350.108,259.522 329.507,258.992 318.309,258.992C307.103,258.992 286.17,259.522 281.017,275.876ZM300.672,275.876C302.691,269.47 308.267,266.946 315.8,266.946C323.333,266.946 327.322,269.47 325.303,275.876C323.282,282.288 317.706,284.811 310.177,284.811C302.64,284.811 298.651,282.288 300.672,275.876Z" style="fill-rule:nonzero;"/>
                <path d="M354.646,260.093L375.735,260.093L388.961,277.605L389.159,277.605L394.669,260.093L412.357,260.093L402.416,291.667L382.175,291.667L368.088,273.976L367.96,273.976L362.388,291.667L344.703,291.667L354.646,260.093Z" style="fill-rule:nonzero;"/>
                <path d="M420.875,260.093L441.972,260.093L455.189,277.605L455.387,277.605L460.9,260.093L478.591,260.093L468.646,291.667L448.405,291.667L434.322,273.976L434.189,273.976L428.619,291.667L410.931,291.667L420.875,260.093Z" style="fill-rule:nonzero;"/>
                <path d="M479.645,275.876C474.494,292.238 495.09,292.772 506.296,292.772C517.495,292.772 538.431,292.238 543.586,275.876C548.734,259.522 528.133,258.992 516.932,258.992C505.729,258.992 484.797,259.522 479.645,275.876ZM499.298,275.876C501.316,269.47 506.891,266.946 514.425,266.946C521.961,266.946 525.953,269.47 523.927,275.876C521.909,282.288 516.336,284.811 508.801,284.811C501.265,284.811 497.279,282.288 499.298,275.876Z" style="fill-rule:nonzero;"/>
                <path d="M544.639,291.667L563.115,291.667L566.176,281.935L579.276,281.935C582.682,281.935 583.418,283.352 582.875,285.696C582.049,289.361 581.617,290.737 581.979,291.667L602.158,291.667C601.285,290.69 600.785,289.361 601.035,287.949L602.416,281.052C602.953,278.311 601.229,276.717 598.645,276.188L598.676,276.099C604.379,275.035 607.219,271.857 608.148,268.893C609.232,265.44 607.312,262.388 604.205,261.246C601.912,260.404 598.799,260.093 593.492,260.093L554.583,260.093L544.639,291.667ZM570.545,268.058L583.387,268.058C586.465,268.058 588.582,268.628 587.828,271.012C587.201,273.005 585.389,273.976 581.782,273.976L568.684,273.976L570.545,268.058Z" style="fill-rule:nonzero;"/>
                <path d="M237.698,309.755C236.768,311.313 235.593,312.563 233.609,313.426C231.653,314.277 228.856,314.76 224.648,314.76C220.466,314.76 212.778,314.558 214.699,308.452C216.621,302.346 224.44,302.15 228.623,302.15C232.783,302.15 239.074,302.508 238.51,307.18L230.732,307.18C230.801,306.339 230.353,305.118 227.687,305.118C224.873,305.118 222.793,306.054 222.039,308.452C221.285,310.845 222.725,311.79 225.245,311.79C227.422,311.79 228.91,311.172 229.921,309.755L237.698,309.755Z" style="fill-rule:nonzero;"/>
                <path d="M244.568,308.452C242.641,314.557 250.334,314.76 254.517,314.76C258.704,314.76 266.518,314.557 268.439,308.452C270.366,302.346 262.672,302.149 258.492,302.149C254.308,302.149 246.491,302.346 244.568,308.452ZM251.904,308.452C252.66,306.054 254.743,305.118 257.553,305.118C260.368,305.118 261.855,306.054 261.104,308.452C260.351,310.845 258.265,311.79 255.452,311.79C252.643,311.79 251.152,310.845 251.904,308.452Z" style="fill-rule:nonzero;"/>
                <path d="M277.685,302.56L285.56,302.56L290.501,309.096L290.573,309.096L292.63,302.56L299.235,302.56L295.525,314.35L287.965,314.35L282.705,307.747L282.659,307.747L280.58,314.35L273.972,314.35L277.685,302.56Z" style="fill-rule:nonzero;"/>
                <path d="M311.215,305.529L304.832,305.529L305.767,302.56L325.436,302.56L324.499,305.529L318.114,305.529L315.337,314.35L308.441,314.35L311.215,305.529Z" style="fill-rule:nonzero;"/>
                <path d="M328.253,314.35L335.151,314.35L336.295,310.71L341.186,310.71C342.458,310.71 342.733,311.246 342.531,312.117C342.221,313.493 342.059,314.002 342.196,314.35L349.731,314.35C349.404,313.981 349.218,313.493 349.312,312.959L349.829,310.383C350.029,309.36 349.385,308.769 348.419,308.566L348.43,308.535C350.561,308.135 351.621,306.945 351.966,305.841C352.371,304.559 351.658,303.416 350.495,302.991C349.64,302.673 348.478,302.56 346.495,302.56L331.966,302.56L328.253,314.35ZM337.929,305.53L342.722,305.53C343.873,305.53 344.661,305.747 344.38,306.635C344.148,307.378 343.468,307.746 342.126,307.746L337.232,307.746L337.929,305.53Z" style="fill-rule:nonzero;"/>
                <path d="M354.231,314.35L361.567,314.35L362.729,312.989L369.92,312.989L370.229,314.35L377.568,314.35L373.843,302.56L365.38,302.56L354.231,314.35ZM369.31,310.118L365.149,310.118L368.465,306.126L368.51,306.126L369.31,310.118Z" style="fill-rule:nonzero;"/>
                <path d="M407.315,309.755C406.386,311.313 405.209,312.563 403.226,313.426C401.268,314.277 398.473,314.76 394.268,314.76C390.086,314.76 382.392,314.558 384.315,308.452C386.242,302.346 394.058,302.15 398.239,302.15C402.397,302.15 408.693,302.508 408.127,307.18L400.348,307.18C400.418,306.339 399.972,305.118 397.302,305.118C394.488,305.118 392.407,306.054 391.655,308.452C390.901,310.845 392.341,311.79 394.859,311.79C397.037,311.79 398.526,311.172 399.535,309.755L407.315,309.755Z" style="fill-rule:nonzero;"/>
                <path d="M420.633,305.529L414.245,305.529L415.186,302.56L434.85,302.56L433.912,305.529L427.527,305.529L424.755,314.35L417.854,314.35L420.633,305.529Z" style="fill-rule:nonzero;"/>
                <path d="M441.456,302.56L448.354,302.56L444.641,314.35L437.743,314.35L441.456,302.56Z" style="fill-rule:nonzero;"/>
                <path d="M456.744,302.56L464.621,302.56L469.557,309.096L469.632,309.096L471.691,302.56L478.295,302.56L474.581,314.35L467.023,314.35L461.765,307.747L461.714,307.747L459.637,314.35L453.031,314.35L456.744,302.56Z" style="fill-rule:nonzero;"/>
                <path d="M497.443,307.627L507.25,307.627L505.137,314.35L502.172,314.35L501.73,313.27C499.607,314.35 497.224,314.76 493.264,314.76C488.417,314.76 482.094,313.95 483.807,308.504C485.44,303.333 491.926,302.149 497.213,302.149C504.891,302.149 508.091,303.566 507.672,306.604L499.893,306.604C499.891,305.991 499.495,305.611 498.927,305.404C498.331,305.187 497.572,305.118 496.669,305.118C493.852,305.118 491.771,306.054 491.018,308.452C490.33,310.633 491.674,311.79 495.104,311.79C497.354,311.79 498.67,311.193 499.439,310.301L496.598,310.301L497.443,307.627Z" style="fill-rule:nonzero;"/>
                <path d="M508.129,310.648L512.398,310.648L511.814,313.457C511.119,316.754 508.06,317.667 506.646,317.714L506.958,316.224C508.127,316.094 508.965,315.519 509.275,314.35L507.352,314.35L508.129,310.648Z" style="fill-rule:nonzero;"/>
                <path d="M536.508,302.56L543.404,302.56L539.688,314.35L532.789,314.35L536.508,302.56Z" style="fill-rule:nonzero;"/>
                <path d="M551.796,302.56L559.674,302.56L564.611,309.096L564.68,309.096L566.74,302.56L573.347,302.56L569.633,314.35L562.07,314.35L556.814,307.747L556.76,307.747L554.686,314.35L548.08,314.35L551.796,302.56Z" style="fill-rule:nonzero;"/>
                <path d="M601.876,309.755C600.947,311.313 599.768,312.563 597.783,313.426C595.824,314.277 593.033,314.76 588.826,314.76C584.645,314.76 576.951,314.558 578.874,308.452C580.801,302.346 588.613,302.15 592.799,302.15C596.957,302.15 603.253,302.508 602.684,307.18L594.904,307.18C594.973,306.339 594.529,305.118 591.865,305.118C589.051,305.118 586.967,306.054 586.213,308.452C585.459,310.845 586.9,311.79 589.418,311.79C591.598,311.79 593.09,311.172 594.096,309.755L601.876,309.755Z" style="fill-rule:nonzero;"/>
                <path d="M603.204,310.648L607.479,310.648L606.697,314.35L602.424,314.35L603.204,310.648Z" style="fill-rule:nonzero;"/>
            </g>
            <g>
                <rect x="521.943" y="199.807" width="85.982" height="51.196" style="fill:rgb(0,95,170);"/>
                <path d="M450.824,199.807C417.73,209.345 391.513,227.92 378.844,251.002L284.353,251.002C299.396,225.672 332.071,206.313 372.119,199.807L450.824,199.807Z" style="fill:rgb(0,95,170);fill-rule:nonzero;"/>
                <path d="M517.377,199.807L517.377,251.002L384.045,251.002C399.089,225.672 431.764,206.313 471.811,199.807L517.377,199.807Z" style="fill:rgb(0,95,170);fill-rule:nonzero;"/>
                <path d="M351.128,199.807L213.59,199.807L213.59,251.002L279.149,251.002C291.822,227.92 318.035,209.345 351.128,199.807Z" style="fill:rgb(0,95,170);fill-rule:nonzero;"/>
            </g>
            <g>
                <rect x="521.82" y="322.051" width="85.982" height="44.446" style="fill:rgb(0,95,170);"/>
                <path d="M517.253,366.497L517.253,322.051L389.258,322.051C407.074,344.982 440,361.798 479.1,366.497L517.253,366.497Z" style="fill:rgb(0,95,170);fill-rule:nonzero;"/>
                <path d="M454.507,366.497C423.494,358.341 398.121,342.329 383.633,322.051L289.564,322.051C307.381,344.982 340.305,361.798 379.406,366.497L454.507,366.497Z" style="fill:rgb(0,95,170);fill-rule:nonzero;"/>
                <path d="M354.814,366.497L213.467,366.497L213.467,322.051L283.937,322.051C298.43,342.329 323.8,358.341 354.814,366.497Z" style="fill:rgb(0,95,170);fill-rule:nonzero;"/>
            </g>
        </g>
    </g>
</svg>
